<svg width="16" height="5" viewBox="0 0 16 5" fill="none" xmlns="http://www.w3.org/2000/svg">
<path id="Combined Shape" fill-rule="evenodd" clip-rule="evenodd" d="M4 2.5C4 3.88071 3.10457 5 2 5C0.895431 5 0 3.88071 0 2.5C0 1.11929 0.895431 0 2 0C3.10457 0 4 1.11929 4 2.5ZM10 2.5C10 3.88071 9.10457 5 8 5C6.89543 5 6 3.88071 6 2.5C6 1.11929 6.89543 0 8 0C9.10457 0 10 1.11929 10 2.5ZM14 5C15.1046 5 16 3.88071 16 2.5C16 1.11929 15.1046 0 14 0C12.8954 0 12 1.11929 12 2.5C12 3.88071 12.8954 5 14 5Z" fill="#BBC0FF"/>
</svg>
